<svg width="21" height="18" viewBox="0 0 21 18" fill="none" xmlns="http://www.w3.org/2000/svg">
<path d="M19.9057 1.65845C19.8159 1.58845 19.7113 1.53982 19.5998 1.51627C19.4884 1.49272 19.3731 1.49485 19.2626 1.52251L13.5316 2.95501L7.78007 0.078763C7.61982 -0.0011685 7.43625 -0.021121 7.26257 0.0225132L1.26257 1.52251C1.10032 1.56307 0.956274 1.6567 0.853336 1.78851C0.750398 1.92033 0.694472 2.08277 0.694447 2.25001V15.75C0.694464 15.864 0.720452 15.9764 0.770437 16.0789C0.820423 16.1813 0.89309 16.271 0.982921 16.3411C1.07275 16.4112 1.17738 16.4599 1.28887 16.4836C1.40035 16.5072 1.51576 16.5051 1.62632 16.4775L7.35726 15.045L13.1088 17.9213C13.2132 17.9727 13.328 17.9997 13.4444 18C13.5058 18 13.5668 17.9924 13.6263 17.9775L19.6263 16.4775C19.7886 16.437 19.9326 16.3433 20.0356 16.2115C20.1385 16.0797 20.1944 15.9173 20.1944 15.75V2.25001C20.1945 2.13594 20.1685 2.02337 20.1184 1.92086C20.0684 1.81835 19.9956 1.7286 19.9057 1.65845ZM8.19445 1.96314L12.6944 4.21314V16.0369L8.19445 13.7869V1.96314ZM2.19445 2.83595L6.69445 1.71095V13.6641L2.19445 14.7891V2.83595ZM18.6944 15.1641L14.1944 16.2891V4.33595L18.6944 3.21095V15.1641Z" fill="#989560" fill-opacity="0.75"/>
</svg>
